<svg xmlns="http://www.w3.org/2000/svg" width="1568" height="669" viewBox="0 0 1568 669">
<g>
<path d="M 72.67,616.25 L 72.61,616.15 L 72.60,615.45 L 72.62,615.03 L 72.76,613.81 L 72.84,613.15 L 73.10,611.58 L 73.61,609.00 L 73.80,608.11 L 74.23,606.00 L 74.44,604.92 L 74.88,602.65 L 75.10,601.51 L 75.50,599.34 L 76.00,596.50 L 76.50,593.56 L 77.51,588.11 L 77.80,586.60 L 78.52,583.02 L 78.72,582.05 L 79.16,579.89 L 79.91,576.25 L 80.06,575.53 L 80.42,573.80 L 80.61,572.90 L 81.00,571.00 L 81.20,570.05 L 81.58,568.20 L 82.09,565.75 L 82.39,564.31 L 83.14,560.72 L 83.32,559.84 L 83.68,558.16 L 84.13,556.00 L 84.27,555.38 L 84.58,553.90 L 84.74,553.13 L 85.08,551.50 L 85.25,550.68 L 85.57,549.10 L 86.00,547.00 L 86.27,545.68 L 86.74,543.38 L 86.96,542.28 L 87.36,540.37 L 87.55,539.45 L 87.90,537.87 L 88.06,537.11 L 88.36,535.79 L 88.66,534.53 L 89.17,532.57 L 89.95,530.00 L 90.11,529.52 L 90.47,528.25 L 90.65,527.57 L 91.03,526.06 L 92.04,521.50 L 92.16,520.81 L 92.55,518.85 L 92.76,517.79 L 93.26,515.33 L 94.88,507.50 L 95.24,505.82 L 96.06,501.93 L 96.48,499.92 L 97.39,495.59 L 98.31,491.19 L 100.19,482.16 L 100.64,479.97 L 101.49,475.87 L 101.90,473.89 L 102.61,470.40 L 102.95,468.76 L 103.48,466.15 L 103.60,465.56 L 103.79,464.60 L 104.01,463.50 L 104.12,462.95 L 104.39,461.55 L 104.54,460.82 L 104.87,459.21 L 105.84,454.50 L 105.91,454.17 L 106.14,453.09 L 106.26,452.48 L 106.60,450.87 L 106.78,450.01 L 107.21,447.93 L 107.44,446.84 L 107.95,444.35 L 108.22,443.06 L 108.81,440.20 L 109.12,438.74 L 109.77,435.58 L 110.44,432.35 L 111.92,425.19 L 112.68,421.54 L 114.27,413.85 L 115.07,409.98 L 116.68,402.19 L 117.47,398.32 L 119.01,390.86 L 121.15,380.50 L 121.57,378.44 L 122.41,374.36 L 122.82,372.36 L 123.55,368.73 L 123.90,367.01 L 124.46,364.24 L 124.59,363.62 L 124.79,362.61 L 125.00,361.50 L 125.11,360.95 L 125.48,359.12 L 125.68,358.11 L 126.20,355.59 L 128.00,347.00 L 128.61,344.11 L 129.83,338.26 L 130.11,336.90 L 130.59,334.58 L 131.11,332.00 L 131.23,331.38 L 131.53,329.90 L 131.68,329.13 L 132.03,327.50 L 133.00,323.00 L 133.14,322.38 L 133.47,320.86 L 133.64,320.07 L 134.00,318.35 L 135.00,313.50 L 135.27,312.12 L 136.00,308.65 L 136.18,307.79 L 136.53,306.14 L 137.00,304.00 L 137.23,302.98 L 137.65,301.03 L 137.87,300.01 L 138.38,297.51 L 138.52,296.82 L 138.85,295.21 L 139.02,294.36 L 139.42,292.36 L 139.63,291.31 L 140.12,288.84 L 140.98,284.50 L 141.03,284.22 L 141.19,283.42 L 141.28,282.97 L 141.50,281.86 L 141.74,280.69 L 142.36,277.64 L 142.68,276.03 L 143.42,272.40 L 144.57,266.75 L 147.37,253.00 L 186.31,253.00 L 225.25,253.00 L 224.52,256.25 L 224.42,256.70 L 224.17,257.83 L 224.04,258.42 L 223.74,259.72 L 222.89,263.50 L 222.77,264.05 L 222.47,265.45 L 222.31,266.18 L 221.98,267.79 L 221.03,272.50 L 220.90,273.19 L 220.49,275.19 L 220.27,276.27 L 219.74,278.82 L 218.00,287.00 L 217.72,288.31 L 217.08,291.28 L 216.76,292.80 L 216.11,295.91 L 215.78,297.45 L 215.19,300.34 L 214.45,304.00 L 214.04,306.06 L 213.12,310.47 L 212.90,311.51 L 212.50,313.36 L 212.01,315.50 L 211.94,315.77 L 211.72,316.75 L 211.60,317.31 L 211.27,318.79 L 211.10,319.59 L 210.69,321.50 L 210.47,322.51 L 209.99,324.79 L 209.74,325.97 L 209.20,328.54 L 208.92,329.85 L 208.33,332.64 L 206.49,341.50 L 205.86,344.52 L 204.65,350.40 L 204.05,353.26 L 202.99,358.36 L 202.74,359.56 L 202.29,361.72 L 202.07,362.75 L 201.70,364.52 L 201.53,365.34 L 201.26,366.65 L 200.97,368.00 L 200.59,369.77 L 199.88,373.08 L 199.53,374.69 L 198.89,377.69 L 198.58,379.15 L 198.01,381.85 L 197.73,383.16 L 197.22,385.58 L 196.98,386.75 L 196.53,388.89 L 196.32,389.92 L 195.93,391.80 L 194.99,396.50 L 194.67,398.15 L 193.84,402.21 L 193.63,403.20 L 193.23,405.09 L 192.71,407.50 L 192.50,408.47 L 192.17,410.87 L 192.02,412.12 L 191.82,414.95 L 191.65,417.84 L 191.69,424.11 L 191.73,425.66 L 191.89,428.63 L 191.99,430.08 L 192.26,432.72 L 192.42,433.99 L 192.80,436.11 L 193.49,438.50 L 194.11,439.98 L 195.72,442.54 L 196.58,443.75 L 198.62,445.78 L 199.70,446.73 L 202.16,448.23 L 203.44,448.91 L 206.28,449.86 L 207.74,450.27 L 210.94,450.67 L 212.57,450.80 L 216.09,450.64 L 217.89,450.48 L 221.70,449.75 L 227.71,448.01 L 230.02,447.20 L 234.66,444.89 L 236.98,443.63 L 241.60,440.47 L 243.90,438.79 L 248.43,434.85 L 250.67,432.80 L 255.05,428.16 L 257.21,425.76 L 261.36,420.49 L 263.40,417.79 L 267.26,411.97 L 269.15,409.00 L 272.65,402.70 L 277.44,392.78 L 278.20,391.05 L 279.65,387.11 L 280.37,385.05 L 281.78,380.37 L 282.48,377.93 L 283.87,372.39 L 285.98,363.00 L 286.85,358.82 L 288.74,349.83 L 289.69,345.27 L 291.66,335.82 L 292.65,331.08 L 294.63,321.60 L 295.61,316.90 L 297.50,307.81 L 298.43,303.35 L 300.15,295.07 L 300.56,293.07 L 301.34,289.29 L 301.73,287.44 L 302.44,284.01 L 302.78,282.35 L 303.41,279.32 L 303.71,277.86 L 304.24,275.28 L 304.49,274.05 L 304.91,271.98 L 305.42,269.50 L 305.86,267.30 L 306.89,262.60 L 307.13,261.49 L 307.59,259.53 L 308.15,257.25 L 309.26,253.00 L 348.20,253.00 L 350.49,253.00 L 354.67,253.00 L 356.70,253.00 L 360.38,253.01 L 362.16,253.01 L 365.38,253.02 L 366.93,253.03 L 369.71,253.04 L 371.05,253.05 L 373.43,253.07 L 374.57,253.09 L 376.57,253.12 L 377.53,253.14 L 379.19,253.18 L 379.98,253.20 L 381.32,253.26 L 381.96,253.29 L 383.02,253.35 L 383.52,253.39 L 384.33,253.47 L 385.08,253.56 L 385.97,253.78 L 386.33,253.90 L 386.61,254.20 L 386.62,254.75 L 386.55,254.99 L 386.29,256.06 L 386.14,256.68 L 385.77,258.34 L 385.57,259.22 L 385.12,261.26 L 384.43,264.50 L 383.97,266.70 L 383.02,271.18 L 382.80,272.22 L 382.42,274.01 L 381.99,276.00 L 381.88,276.48 L 381.51,278.19 L 381.31,279.14 L 380.79,281.56 L 380.52,282.82 L 379.92,285.65 L 379.00,290.00 L 378.73,291.31 L 378.22,293.72 L 377.97,294.88 L 377.51,297.04 L 377.06,299.15 L 376.26,302.87 L 373.90,313.50 L 373.77,314.05 L 373.47,315.45 L 373.31,316.18 L 372.97,317.79 L 372.00,322.50 L 371.73,323.88 L 371.03,327.21 L 370.86,328.02 L 370.53,329.55 L 370.10,331.50 L 369.37,334.74 L 367.81,341.84 L 367.43,343.56 L 366.75,346.73 L 365.89,350.75 L 365.65,351.92 L 365.00,355.00 L 364.11,359.25 L 363.99,359.83 L 363.67,361.33 L 363.50,362.12 L 363.12,363.87 L 362.00,369.00 L 361.66,370.51 L 360.90,374.06 L 360.72,374.92 L 360.38,376.51 L 359.97,378.50 L 359.91,378.77 L 359.75,379.55 L 359.67,379.97 L 359.45,381.00 L 359.22,382.09 L 358.64,384.85 L 358.34,386.30 L 357.65,389.53 L 356.60,394.50 L 356.25,396.15 L 355.51,400.11 L 355.15,402.15 L 354.46,406.50 L 354.12,408.67 L 353.54,412.89 L 352.90,418.50 L 352.73,420.28 L 352.51,423.36 L 352.42,424.82 L 352.37,427.34 L 352.37,428.54 L 352.53,430.60 L 352.64,431.58 L 353.02,433.27 L 353.24,434.08 L 353.88,435.50 L 354.24,436.19 L 355.16,437.43 L 355.66,438.04 L 356.88,439.20 L 359.10,440.96 L 360.36,441.87 L 363.07,443.20 L 364.47,443.78 L 367.52,444.44 L 369.10,444.70 L 372.63,444.72 L 378.58,444.06 L 379.50,443.90 L 381.21,443.65 L 382.03,443.54 L 383.43,443.39 L 384.08,443.33 L 385.02,443.30 L 385.74,443.41 L 385.81,443.48 L 385.80,444.26 L 385.77,444.74 L 385.59,446.20 L 385.48,447.00 L 385.15,448.95 L 384.52,452.21 L 383.74,455.96 L 382.32,462.71 L 381.98,464.33 L 381.34,467.36 L 381.03,468.84 L 380.45,471.58 L 380.17,472.90 L 379.65,475.32 L 379.40,476.49 L 378.96,478.58 L 378.74,479.58 L 378.37,481.31 L 377.89,483.50 L 377.58,484.88 L 376.88,488.21 L 376.72,489.02 L 376.41,490.55 L 376.03,492.50 L 375.83,493.55 L 375.46,495.30 L 375.28,496.13 L 374.89,497.50 L 374.68,498.14 L 374.22,499.18 L 373.96,499.66 L 373.36,500.44 L 373.03,500.81 L 372.22,501.40 L 371.79,501.67 L 370.72,502.13 L 370.15,502.36 L 368.76,502.76 L 366.26,503.37 L 364.16,503.85 L 359.29,504.68 L 356.76,505.07 L 351.24,505.71 L 348.42,506.01 L 342.53,506.46 L 339.56,506.66 L 333.57,506.91 L 330.59,507.02 L 324.77,507.06 L 321.92,507.05 L 316.56,506.88 L 313.96,506.76 L 309.33,506.36 L 308.23,506.24 L 306.21,505.97 L 303.50,505.49 L 301.35,505.04 L 297.30,503.84 L 295.32,503.19 L 291.63,501.61 L 289.83,500.77 L 286.50,498.81 L 284.88,497.78 L 281.91,495.44 L 280.47,494.23 L 277.87,491.52 L 276.62,490.12 L 274.39,487.05 L 273.33,485.47 L 271.48,482.04 L 269.15,476.50 L 269.01,476.09 L 268.69,474.72 L 268.53,473.97 L 268.21,472.10 L 267.43,465.75 L 267.34,464.68 L 267.12,462.74 L 267.01,461.81 L 266.77,460.28 L 266.65,459.57 L 266.41,458.61 L 266.10,458.00 L 266.01,458.00 L 265.37,458.61 L 264.99,459.00 L 263.89,460.27 L 263.29,460.96 L 261.86,462.72 L 259.50,465.71 L 257.39,468.45 L 253.22,473.47 L 251.14,475.91 L 246.99,480.37 L 244.92,482.53 L 240.75,486.45 L 238.67,488.34 L 234.45,491.75 L 232.33,493.39 L 228.03,496.31 L 225.86,497.71 L 221.43,500.18 L 219.20,501.36 L 214.61,503.40 L 207.50,506.00 L 206.17,506.43 L 203.43,507.10 L 202.01,507.41 L 198.81,507.89 L 197.11,508.12 L 193.06,508.46 L 191.98,508.54 L 189.59,508.68 L 185.61,508.87 L 170.72,509.50 L 169.33,514.96 L 169.13,515.72 L 168.66,517.72 L 168.42,518.78 L 167.89,521.18 L 166.40,528.46 L 165.99,530.63 L 165.28,534.31 L 164.93,536.07 L 164.29,539.30 L 163.96,540.90 L 163.29,544.13 L 162.13,549.50 L 162.06,549.84 L 161.83,550.94 L 161.70,551.56 L 161.36,553.14 L 161.19,553.98 L 160.77,555.98 L 160.55,557.02 L 160.06,559.35 L 159.56,561.75 L 158.42,567.26 L 156.60,576.00 L 155.99,578.96 L 154.75,584.82 L 154.13,587.70 L 152.98,592.95 L 152.70,594.19 L 152.19,596.47 L 151.95,597.56 L 151.50,599.47 L 151.29,600.38 L 150.94,601.86 L 150.51,603.50 L 150.06,605.15 L 149.07,608.84 L 148.83,609.72 L 148.40,611.32 L 147.90,613.25 L 146.92,617.00 L 110.02,617.00 L 107.48,617.00 L 102.60,616.98 L 100.19,616.97 L 95.66,616.94 L 93.44,616.92 L 89.35,616.87 L 87.37,616.84 L 83.83,616.78 L 82.13,616.75 L 79.24,616.67 L 77.89,616.63 L 75.75,616.54 L 74.79,616.50 L 73.51,616.40 L 72.99,616.35 M 174.49,595.75 L 174.66,594.97 L 174.99,593.49 L 175.16,592.71 L 175.57,590.68 L 175.69,590.10 L 175.97,588.72 L 176.12,587.99 L 176.47,586.22 L 176.66,585.27 L 177.11,583.02 L 177.90,579.00 L 178.20,577.49 L 178.97,573.79 L 179.16,572.89 L 179.53,571.18 L 180.00,569.00 L 180.28,567.76 L 180.97,564.50 L 181.14,563.68 L 181.46,562.10 L 181.88,560.00 L 182.36,557.50 L 183.37,552.48 L 183.87,550.01 L 184.84,545.39 L 185.08,544.28 L 185.53,542.21 L 185.75,541.21 L 186.15,539.41 L 186.35,538.54 L 186.70,537.06 L 187.15,535.25 L 188.26,531.00 L 841.38,531.25 L 1494.50,531.50 L 1494.76,565.25 L 1495.03,599.00 L 834.39,599.00 L 173.75,599.00 L 174.49,595.75 M 627.92,586.40 L 632.34,583.95 L 634.97,586.48 L 635.50,586.98 L 636.49,587.72 L 636.99,588.05 L 638.07,588.49 L 638.64,588.67 L 640.00,588.87 L 642.55,588.95 L 647.50,588.91 L 642.41,584.20 L 637.32,579.50 L 640.16,574.14 L 640.94,572.66 L 642.17,569.35 L 642.42,568.56 L 642.78,567.12 L 643.00,565.39 L 643.00,564.62 L 642.92,563.56 L 642.85,563.10 L 642.53,562.54 L 642.34,562.31 L 641.65,562.10 L 640.08,562.00 L 639.46,562.00 L 638.55,562.12 L 638.14,562.21 L 637.56,562.59 L 637.30,562.82 L 636.93,563.57 L 636.47,565.25 L 636.29,566.14 L 635.55,568.49 L 634.29,571.73 L 632.79,574.96 L 626.54,569.27 L 620.29,563.57 L 624.49,560.90 L 625.67,560.16 L 627.34,558.87 L 628.08,558.23 L 629.01,556.90 L 629.40,556.20 L 629.79,554.50 L 629.97,551.17 L 629.96,550.00 L 629.59,548.08 L 629.34,547.18 L 628.44,545.71 L 627.91,545.02 L 626.40,543.90 L 623.36,542.51 L 621.86,542.00 L 619.01,541.61 L 617.61,541.52 L 615.04,541.90 L 613.80,542.17 L 611.62,543.19 L 610.58,543.77 L 608.89,545.32 L 608.11,546.16 L 607.02,548.13 L 606.55,549.16 L 606.15,551.44 L 606.05,552.61 L 606.46,555.09 L 608.09,558.91 L 608.59,559.73 L 609.22,560.85 L 609.47,561.34 L 609.62,561.99 L 609.64,562.28 L 609.32,562.70 L 608.33,563.34 L 608.08,563.48 L 607.41,563.97 L 607.05,564.24 L 606.23,564.92 L 603.75,567.28 L 603.16,567.91 L 602.33,569.01 L 601.96,569.56 L 601.49,570.73 L 601.30,571.36 L 601.10,572.92 L 601.00,576.03 L 601.00,577.32 L 601.10,579.21 L 601.17,580.08 L 601.51,581.39 L 601.73,582.01 L 602.44,583.11 L 604.08,584.92 L 604.92,585.77 L 607.04,587.27 L 607.56,587.60 L 608.55,588.12 L 609.83,588.59 L 610.56,588.75 L 612.01,589.11 L 613.50,589.55 L 613.79,589.66 L 614.62,589.75 L 615.07,589.78 L 616.16,589.74 L 617.30,589.66 L 620.04,589.15 L 621.45,588.84 L 624.26,587.97 L 625.63,587.50 M 1095.67,588.85 L 1096.29,588.70 L 1097.64,588.16 L 1098.33,587.85 L 1099.76,587.07 L 1101.18,586.25 L 1103.86,584.20 L 1104.48,583.69 L 1105.58,582.64 L 1106.09,582.13 L 1106.89,581.15 L 1107.25,580.67 L 1107.67,579.83 L 1107.77,578.81 L 1107.65,578.45 L 1106.75,577.63 L 1104.90,576.64 L 1104.39,576.46 L 1103.53,576.33 L 1103.11,576.30 L 1102.29,576.53 L 1101.87,576.69 L 1100.91,577.34 L 1099.16,578.85 L 1098.45,579.51 L 1097.00,580.56 L 1096.27,581.04 L 1094.77,581.76 L 1094.02,582.09 L 1092.50,582.49 L 1091.74,582.66 L 1090.23,582.77 L 1089.48,582.80 L 1087.99,582.64 L 1087.25,582.52 L 1085.82,582.10 L 1084.41,581.62 L 1081.84,579.97 L 1080.62,579.04 L 1078.57,576.60 L 1077.63,575.30 L 1076.31,572.21 L 1076.03,571.41 L 1075.65,569.70 L 1075.48,568.84 L 1075.34,567.02 L 1075.30,566.10 L 1075.43,564.19 L 1075.96,561.25 L 1076.36,559.64 L 1077.58,556.82 L 1078.25,555.48 L 1079.91,553.24 L 1080.78,552.20 L 1082.77,550.58 L 1083.80,549.85 L 1086.01,548.89 L 1087.13,548.49 L 1089.45,548.23 L 1090.62,548.19 L 1092.94,548.66 L 1094.09,548.99 L 1096.30,550.24 L 1099.36,553.02 L 1099.92,553.69 L 1100.77,554.56 L 1101.17,554.93 L 1101.89,555.28 L 1102.27,555.40 L 1103.14,555.30 L 1104.90,554.73 L 1105.75,554.41 L 1107.09,553.69 L 1107.37,553.51 L 1107.76,553.20 L 1108.00,552.82 L 1108.00,552.63 L 1107.72,552.04 L 1107.54,551.72 L 1106.96,550.92 L 1106.31,550.08 L 1104.44,548.08 L 1103.45,547.08 L 1101.35,545.23 L 1100.83,544.80 L 1099.87,544.08 L 1098.60,543.28 L 1097.97,542.95 L 1096.52,542.44 L 1095.77,542.21 L 1094.12,541.89 L 1092.43,541.62 L 1088.75,541.65 L 1086.91,541.76 L 1083.30,542.51 L 1082.43,542.74 L 1080.79,543.33 L 1078.55,544.42 L 1077.00,545.33 L 1074.36,547.72 L 1073.12,549.00 L 1071.11,551.99 L 1070.19,553.55 L 1068.84,556.96 L 1068.25,558.70 L 1067.58,562.36 L 1067.34,564.20 L 1067.37,567.91 L 1067.48,569.76 L 1068.25,573.35 L 1068.73,575.11 L 1070.26,578.40 L 1073.42,582.79 L 1074.15,583.57 L 1075.70,584.93 L 1076.48,585.57 L 1078.13,586.67 L 1078.97,587.19 L 1080.72,588.02 L 1081.60,588.41 L 1083.44,588.98 L 1084.38,589.24 L 1086.31,589.55 L 1087.29,589.67 L 1089.31,589.71 L 1090.33,589.70 L 1092.43,589.48 L 1093.49,589.34 M 1216.21,586.81 L 1221.00,584.75 L 1221.00,574.38 L 1221.00,564.00 L 1212.00,564.00 L 1203.00,564.00 L 1203.00,566.95 L 1203.00,567.66 L 1203.11,568.62 L 1203.20,569.03 L 1203.72,569.53 L 1204.06,569.74 L 1205.29,569.97 L 1205.65,570.02 L 1206.57,570.09 L 1208.25,570.20 L 1213.50,570.50 L 1213.81,575.28 L 1213.88,576.45 L 1213.91,578.03 L 1213.89,578.72 L 1213.57,579.63 L 1213.35,580.04 L 1212.48,580.65 L 1210.34,581.63 L 1209.44,582.01 L 1207.62,582.49 L 1206.71,582.69 L 1204.90,582.83 L 1204.00,582.85 L 1202.23,582.66 L 1201.36,582.52 L 1199.68,582.00 L 1198.85,581.70 L 1197.29,580.88 L 1196.53,580.43 L 1195.13,579.31 L 1194.45,578.72 L 1193.25,577.32 L 1191.70,574.93 L 1191.34,574.25 L 1190.80,572.66 L 1190.56,571.83 L 1190.24,570.00 L 1189.97,568.12 L 1190.07,564.07 L 1190.22,562.05 L 1191.10,558.27 L 1191.37,557.38 L 1192.04,555.77 L 1193.25,553.74 L 1193.85,552.95 L 1195.25,551.62 L 1195.98,551.00 L 1197.58,550.01 L 1198.40,549.55 L 1200.14,548.91 L 1201.01,548.63 L 1202.81,548.34 L 1203.71,548.24 L 1205.51,548.31 L 1206.39,548.39 L 1208.11,548.83 L 1208.96,549.10 L 1210.53,549.91 L 1212.66,551.57 L 1213.24,552.15 L 1214.08,552.89 L 1214.48,553.20 L 1215.17,553.43 L 1215.53,553.49 L 1216.35,553.27 L 1218.06,552.47 L 1218.68,552.15 L 1219.53,551.61 L 1219.90,551.35 L 1220.29,550.86 L 1220.43,550.61 L 1220.42,550.06 L 1220.02,549.04 L 1219.66,548.36 L 1218.62,547.11 L 1218.06,546.51 L 1216.67,545.42 L 1215.94,544.89 L 1214.26,543.99 L 1213.40,543.56 L 1211.52,542.86 L 1210.56,542.53 L 1208.54,542.06 L 1207.52,541.86 L 1205.43,541.64 L 1204.38,541.56 L 1202.30,541.62 L 1199.25,542.05 L 1197.38,542.47 L 1194.15,543.71 L 1192.62,544.40 L 1190.00,546.25 L 1188.75,547.26 L 1186.63,549.81 L 1183.90,554.50 L 1183.61,555.14 L 1183.12,556.70 L 1182.89,557.53 L 1182.54,559.39 L 1182.22,561.30 L 1182.01,565.57 L 1181.98,567.71 L 1182.34,571.78 L 1182.47,572.75 L 1182.83,574.51 L 1183.55,576.77 L 1184.16,578.25 L 1185.80,580.84 L 1186.67,582.07 L 1188.77,584.17 L 1189.87,585.15 L 1192.37,586.72 L 1193.66,587.44 L 1196.50,588.47 L 1197.95,588.92 L 1201.04,589.39 L 1202.62,589.55 L 1205.91,589.44 L 1207.58,589.31 L 1211.00,588.59 L 1212.72,588.16 M 1268.96,587.52 L 1269.97,587.00 L 1271.66,585.57 L 1272.45,584.80 L 1273.68,582.92 L 1274.23,581.93 L 1274.95,579.66 L 1275.43,575.91 L 1275.45,574.89 L 1275.29,573.05 L 1275.18,572.15 L 1274.75,570.55 L 1274.50,569.77 L 1273.77,568.37 L 1273.37,567.70 L 1272.32,566.48 L 1271.75,565.90 L 1270.35,564.84 L 1269.60,564.33 L 1267.83,563.41 L 1266.90,562.96 L 1264.73,562.14 L 1260.99,561.01 L 1259.98,560.74 L 1258.22,560.08 L 1257.39,559.74 L 1256.01,558.95 L 1255.37,558.55 L 1254.38,557.66 L 1253.93,557.20 L 1253.35,556.24 L 1253.11,555.74 L 1252.94,554.73 L 1252.91,554.21 L 1253.17,553.17 L 1253.36,552.65 L 1254.07,551.61 L 1255.63,550.07 L 1256.51,549.39 L 1258.35,548.55 L 1259.28,548.22 L 1261.18,548.10 L 1262.13,548.13 L 1264.00,548.72 L 1266.68,550.40 L 1267.33,550.96 L 1268.28,551.68 L 1268.72,551.98 L 1269.47,552.22 L 1269.84,552.28 L 1270.66,552.09 L 1272.24,551.38 L 1273.11,550.92 L 1274.20,550.16 L 1274.63,549.78 L 1274.82,549.00 L 1274.80,548.59 L 1274.07,547.59 L 1271.95,545.62 L 1271.26,545.03 L 1269.82,544.06 L 1269.09,543.61 L 1267.59,542.90 L 1266.08,542.24 L 1263.00,541.64 L 1261.46,541.45 L 1258.45,541.71 L 1256.98,541.95 L 1254.25,542.99 L 1252.93,543.60 L 1250.66,545.33 L 1249.60,546.27 L 1247.97,548.60 L 1247.26,549.84 L 1246.48,552.68 L 1246.34,553.42 L 1246.26,554.98 L 1246.45,557.44 L 1246.68,558.82 L 1247.54,561.11 L 1248.06,562.18 L 1249.64,563.94 L 1250.54,564.77 L 1253.01,566.18 L 1253.69,566.51 L 1255.25,567.14 L 1257.90,568.05 L 1258.87,568.35 L 1260.56,568.93 L 1261.36,569.22 L 1262.75,569.79 L 1263.40,570.08 L 1264.50,570.66 L 1265.02,570.95 L 1265.86,571.57 L 1266.63,572.19 L 1267.51,573.61 L 1268.00,576.15 L 1268.00,577.09 L 1267.44,578.80 L 1267.08,579.61 L 1265.92,580.98 L 1265.27,581.60 L 1263.67,582.45 L 1260.95,583.00 L 1260.05,583.00 L 1258.08,582.60 L 1257.10,582.35 L 1255.20,581.55 L 1254.28,581.11 L 1252.74,580.05 L 1251.17,578.33 L 1250.96,577.97 L 1250.57,577.50 L 1250.37,577.31 L 1249.85,577.17 L 1249.57,577.15 L 1248.78,577.33 L 1247.12,577.95 L 1246.19,578.33 L 1245.02,578.95 L 1244.53,579.26 L 1244.19,579.93 L 1244.12,580.30 L 1244.57,581.28 L 1246.08,583.37 L 1246.69,584.15 L 1248.15,585.50 L 1248.92,586.14 L 1250.64,587.20 L 1251.53,587.70 L 1253.45,588.46 L 1254.43,588.81 L 1256.49,589.26 L 1257.53,589.45 L 1259.65,589.59 L 1260.72,589.61 L 1262.85,589.42 L 1263.91,589.28 L 1265.98,588.73 L 1267.00,588.42 M 1344.00,587.99 L 1344.94,587.49 L 1346.54,586.14 L 1347.30,585.41 L 1348.53,583.71 L 1349.10,582.82 L 1349.94,580.85 L 1350.31,579.85 L 1350.75,577.74 L 1350.92,576.68 L 1350.94,574.52 L 1350.89,573.45 L 1350.48,571.35 L 1350.21,570.32 L 1349.34,568.38 L 1347.50,565.78 L 1347.10,565.35 L 1345.97,564.50 L 1345.35,564.07 L 1343.82,563.25 L 1343.02,562.84 L 1341.15,562.07 L 1338.01,561.00 L 1336.89,560.67 L 1334.96,559.95 L 1334.04,559.58 L 1332.52,558.78 L 1331.81,558.38 L 1330.69,557.52 L 1330.19,557.08 L 1329.49,556.16 L 1329.19,555.70 L 1328.91,554.73 L 1328.83,554.23 L 1328.97,553.21 L 1329.09,552.70 L 1329.66,551.64 L 1331.00,550.00 L 1331.71,549.29 L 1333.53,548.44 L 1334.48,548.11 L 1336.59,548.02 L 1337.66,548.07 L 1339.82,548.72 L 1342.84,550.52 L 1343.49,551.07 L 1344.49,551.80 L 1344.96,552.11 L 1345.76,552.40 L 1346.15,552.49 L 1346.96,552.39 L 1348.41,551.86 L 1349.17,551.51 L 1350.14,550.97 L 1350.54,550.70 L 1350.84,550.13 L 1350.91,549.82 L 1350.58,549.00 L 1349.45,547.23 L 1348.82,546.33 L 1347.20,544.85 L 1346.34,544.16 L 1344.35,543.12 L 1343.33,542.65 L 1341.10,542.04 L 1339.97,541.79 L 1337.62,541.63 L 1336.44,541.60 L 1334.09,541.87 L 1332.92,542.07 L 1330.69,542.79 L 1329.59,543.21 L 1327.60,544.38 L 1325.00,546.65 L 1324.39,547.35 L 1323.50,548.56 L 1323.10,549.16 L 1322.58,550.34 L 1322.36,550.95 L 1322.12,552.34 L 1322.00,554.90 L 1322.00,555.85 L 1322.12,557.50 L 1322.21,558.30 L 1322.57,559.69 L 1322.78,560.35 L 1323.45,561.55 L 1323.82,562.12 L 1324.86,563.18 L 1325.44,563.70 L 1326.93,564.69 L 1327.73,565.18 L 1329.75,566.16 L 1330.83,566.66 L 1333.44,567.71 L 1338.10,569.43 L 1339.02,569.75 L 1340.56,570.52 L 1341.29,570.92 L 1342.44,571.82 L 1342.97,572.29 L 1343.72,573.29 L 1344.04,573.80 L 1344.39,574.87 L 1344.51,575.41 L 1344.44,576.53 L 1344.35,577.08 L 1343.86,578.20 L 1343.56,578.76 L 1342.64,579.86 L 1340.77,581.45 L 1339.86,582.09 L 1337.85,582.78 L 1336.83,583.03 L 1334.72,582.97 L 1333.67,582.84 L 1331.64,582.03 L 1328.86,580.01 L 1328.14,579.29 L 1327.11,578.36 L 1326.64,577.97 L 1325.87,577.65 L 1325.49,577.55 L 1324.64,577.74 L 1322.93,578.53 L 1322.13,578.95 L 1320.86,579.87 L 1320.60,580.09 L 1320.23,580.48 L 1320.00,580.95 L 1320.00,581.19 L 1320.27,581.80 L 1320.45,582.12 L 1321.01,582.85 L 1321.64,583.60 L 1323.51,585.24 L 1324.50,586.04 L 1326.69,587.45 L 1329.72,588.83 L 1330.69,589.09 L 1333.21,589.35 L 1334.52,589.44 L 1337.30,589.35 L 1338.68,589.27 L 1341.18,588.88 L 1341.76,588.77 L 1342.77,588.49 L 1343.25,588.34 M 465.71,586.90 L 466.98,586.29 L 468.98,584.82 L 469.90,584.04 L 471.25,582.20 L 471.85,581.22 L 472.57,578.94 L 473.00,574.95 L 473.00,574.10 L 472.86,572.72 L 472.75,572.07 L 472.33,570.92 L 472.07,570.36 L 471.26,569.23 L 469.50,567.30 L 465.99,563.79 L 468.50,560.82 L 469.30,559.86 L 470.35,557.53 L 470.77,556.32 L 471.05,553.73 L 471.09,552.43 L 470.59,549.94 L 468.95,546.67 L 468.29,545.83 L 466.50,544.52 L 465.51,543.92 L 462.93,543.07 L 462.22,542.89 L 460.63,542.59 L 459.80,542.46 L 457.94,542.26 L 456.97,542.18 L 454.83,542.07 L 451.25,542.01 L 443.00,542.00 L 443.00,565.50 L 443.00,589.00 L 452.18,589.00 L 454.01,589.00 L 456.89,588.91 L 458.23,588.84 L 460.39,588.57 L 461.41,588.42 L 463.17,587.93 L 464.03,587.65 M 486.38,583.46 L 488.12,577.93 L 497.80,578.21 L 507.48,578.50 L 509.37,583.75 L 509.59,584.37 L 509.97,585.39 L 510.15,585.87 L 510.49,586.65 L 510.82,587.37 L 511.47,588.22 L 511.82,588.57 L 512.72,588.87 L 514.63,589.00 L 515.59,589.00 L 516.87,588.74 L 517.41,588.55 L 517.88,587.76 L 517.95,587.52 L 517.95,586.91 L 517.93,586.58 L 517.74,585.77 L 517.63,585.34 L 517.27,584.30 L 516.55,582.47 L 516.15,581.51 L 515.68,580.02 L 515.59,579.70 L 515.53,579.27 L 515.61,579.00 L 515.75,579.00 L 515.74,578.63 L 515.34,577.75 L 515.12,577.41 L 514.74,576.57 L 514.39,575.50 L 514.36,575.34 L 514.20,574.76 L 514.10,574.42 L 513.81,573.52 L 513.65,573.03 L 513.24,571.85 L 513.02,571.24 L 512.52,569.84 L 512.01,568.39 L 510.76,565.04 L 510.12,563.31 L 508.74,559.68 L 508.04,557.87 L 506.67,554.35 L 506.00,552.65 L 504.79,549.62 L 504.50,548.92 L 503.98,547.66 L 503.73,547.06 L 503.30,546.06 L 503.09,545.60 L 502.77,544.90 L 502.42,544.25 L 502.15,543.83 L 501.54,543.19 L 501.22,542.90 L 500.45,542.50 L 500.05,542.32 L 499.05,542.12 L 497.23,542.01 L 493.50,542.02 L 487.11,559.26 L 486.23,561.63 L 484.44,566.45 L 483.55,568.83 L 481.90,573.27 L 481.50,574.34 L 480.77,576.31 L 480.41,577.26 L 479.78,578.96 L 479.48,579.77 L 478.97,581.14 L 478.36,582.75 L 476.02,589.00 L 480.33,589.00 L 484.63,589.00 L 486.38,583.46 M 549.81,585.25 L 550.13,582.00 L 541.06,582.00 L 532.00,582.00 L 532.00,561.94 L 532.00,541.87 L 528.75,542.19 L 525.50,542.50 L 525.23,564.48 L 525.19,567.50 L 525.16,573.11 L 525.16,574.46 L 525.16,576.97 L 525.17,578.18 L 525.19,580.38 L 525.20,581.44 L 525.23,583.26 L 525.24,584.12 L 525.29,585.52 L 525.31,586.15 L 525.37,587.05 L 525.46,587.76 L 525.56,588.01 L 526.28,588.37 L 526.75,588.53 L 528.38,588.72 L 528.85,588.76 L 530.01,588.81 L 530.62,588.84 L 532.08,588.85 L 532.86,588.86 L 534.65,588.84 L 537.73,588.78 L 549.50,588.50 L 549.81,585.25 M 581.00,585.54 L 581.00,582.08 L 572.25,581.79 L 563.50,581.50 L 563.29,562.00 L 563.08,542.50 L 560.04,542.19 L 557.00,541.87 L 557.00,565.44 L 557.00,589.00 L 569.00,589.00 L 581.00,589.00 L 581.00,585.54 M 684.00,569.00 L 684.00,549.00 L 690.56,549.00 L 697.13,549.00 L 696.81,545.75 L 696.50,542.50 L 680.50,542.50 L 664.50,542.50 L 664.19,545.75 L 663.87,549.00 L 670.44,549.00 L 677.00,549.00 L 677.00,568.33 L 677.00,570.99 L 677.05,575.89 L 677.07,577.07 L 677.11,579.24 L 677.14,580.29 L 677.20,582.18 L 677.23,583.09 L 677.29,584.65 L 677.33,585.38 L 677.41,586.55 L 677.45,587.08 L 677.53,587.80 L 677.67,588.33 L 677.85,588.52 L 678.97,588.80 L 681.17,589.00 L 684.00,589.00 L 684.00,569.00 M 705.01,583.50 L 706.67,578.50 L 716.07,578.50 L 725.48,578.50 L 727.36,583.75 L 727.59,584.39 L 727.98,585.44 L 728.17,585.93 L 728.51,586.72 L 728.84,587.46 L 729.52,588.29 L 729.89,588.63 L 730.89,588.90 L 733.13,589.00 L 734.19,589.00 L 735.86,588.77 L 736.21,588.70 L 736.69,588.52 L 737.00,588.21 L 737.00,588.15 L 736.83,587.59 L 736.72,587.24 L 736.35,586.13 L 736.13,585.51 L 735.58,583.92 L 735.28,583.07 L 734.56,581.05 L 734.19,580.00 L 733.33,577.63 L 732.89,576.40 L 731.93,573.74 L 728.71,564.96 L 720.41,542.50 L 715.96,542.50 L 715.25,542.50 L 714.06,542.58 L 713.50,542.64 L 712.63,542.83 L 712.24,542.93 L 711.73,543.22 L 711.38,543.75 L 711.34,544.09 L 711.25,544.78 L 711.12,545.50 L 710.90,546.75 L 710.87,546.96 L 710.51,547.87 L 709.70,549.50 L 709.40,550.05 L 708.86,551.26 L 708.39,552.69 L 708.38,552.76 L 708.25,553.17 L 708.17,553.43 L 707.90,554.20 L 707.75,554.63 L 707.36,555.71 L 707.16,556.28 L 706.67,557.62 L 706.16,559.02 L 704.91,562.40 L 704.26,564.16 L 702.84,567.98 L 702.12,569.92 L 700.65,573.82 L 699.92,575.75 L 698.56,579.35 L 697.90,581.09 L 696.76,584.04 L 696.50,584.72 L 696.04,585.89 L 695.47,587.31 L 695.31,587.72 L 695.22,588.27 L 695.22,588.50 L 695.58,588.77 L 695.83,588.88 L 696.78,588.92 L 699.04,588.81 L 700.09,588.74 L 701.51,588.54 L 702.14,588.41 L 702.98,587.87 L 703.37,587.53 L 703.98,586.34 L 704.13,585.99 L 704.45,585.12 L 704.62,584.64 M 765.28,587.63 L 766.72,587.02 L 768.99,585.55 L 770.03,584.77 L 771.55,582.91 L 772.22,581.92 L 773.03,579.60 L 773.50,575.50 L 773.50,574.43 L 773.39,572.75 L 773.32,571.97 L 773.02,570.71 L 772.83,570.12 L 772.27,569.09 L 771.08,567.58 L 770.41,566.87 L 768.97,565.76 L 768.63,565.52 L 768.03,565.20 L 767.33,565.00 L 766.86,565.00 L 766.32,564.88 L 766.13,564.79 L 766.19,564.36 L 766.31,564.08 L 767.05,563.15 L 767.28,562.88 L 767.88,562.21 L 769.00,561.00 L 769.57,560.39 L 770.43,559.27 L 770.82,558.72 L 771.35,557.63 L 771.59,557.08 L 771.85,555.89 L 772.00,553.86 L 772.00,552.80 L 771.73,550.92 L 771.54,550.01 L 770.88,548.43 L 770.50,547.68 L 769.44,546.38 L 768.85,545.77 L 767.35,544.75 L 766.55,544.28 L 764.60,543.52 L 763.56,543.17 L 761.14,542.66 L 759.87,542.44 L 756.95,542.16 L 751.98,542.00 L 743.00,542.00 L 743.00,565.50 L 743.00,589.00 L 752.53,589.00 L 753.99,589.00 L 756.71,588.90 L 758.03,588.84 L 760.36,588.63 L 761.46,588.51 L 763.28,588.20 L 764.11,588.03 M 807.81,585.25 L 808.13,582.00 L 799.08,582.00 L 790.04,582.00 L 789.77,562.25 L 789.50,542.50 L 785.75,542.19 L 782.00,541.88 L 782.00,565.47 L 782.00,589.06 L 794.75,588.78 L 807.50,588.50 L 807.81,585.25 M 839.00,585.50 L 839.00,582.00 L 829.45,582.00 L 819.91,582.00 L 820.20,575.25 L 820.50,568.50 L 828.75,568.21 L 837.00,567.92 L 837.00,564.96 L 837.00,562.00 L 828.50,562.00 L 820.00,562.00 L 820.00,555.50 L 820.00,549.00 L 829.00,549.00 L 838.00,549.00 L 838.00,545.47 L 838.00,541.94 L 825.75,542.22 L 813.50,542.50 L 813.23,564.48 L 813.19,567.50 L 813.16,573.11 L 813.16,574.46 L 813.16,576.96 L 813.17,578.18 L 813.18,580.37 L 813.19,581.42 L 813.22,583.25 L 813.24,584.11 L 813.28,585.50 L 813.30,586.13 L 813.36,587.02 L 813.45,587.73 L 813.54,587.96 L 814.34,588.32 L 814.85,588.48 L 816.63,588.71 L 817.15,588.77 L 818.39,588.84 L 819.05,588.88 L 820.59,588.93 L 821.40,588.96 L 823.27,588.98 L 826.47,589.00 L 839.00,589.00 L 839.00,585.50 M 884.28,587.63 L 885.72,587.02 L 887.99,585.55 L 889.03,584.77 L 890.55,582.91 L 891.22,581.92 L 892.03,579.60 L 892.50,575.50 L 892.50,574.43 L 892.39,572.75 L 892.32,571.97 L 892.02,570.71 L 891.83,570.12 L 891.27,569.09 L 890.08,567.58 L 889.41,566.87 L 887.97,565.76 L 887.63,565.52 L 887.03,565.20 L 886.33,565.00 L 885.86,565.00 L 885.32,564.88 L 885.13,564.79 L 885.19,564.36 L 885.31,564.08 L 886.05,563.15 L 886.28,562.88 L 886.88,562.21 L 888.00,561.00 L 888.57,560.39 L 889.43,559.27 L 889.82,558.72 L 890.35,557.63 L 890.59,557.08 L 890.85,555.89 L 891.00,553.86 L 891.00,552.78 L 890.71,550.85 L 890.52,549.93 L 889.82,548.32 L 889.43,547.55 L 888.31,546.24 L 887.70,545.62 L 886.16,544.61 L 885.32,544.14 L 883.32,543.40 L 882.26,543.07 L 879.78,542.61 L 878.48,542.42 L 875.52,542.22 L 870.49,542.21 L 861.50,542.50 L 861.23,564.48 L 861.19,567.50 L 861.16,573.11 L 861.16,574.46 L 861.16,576.96 L 861.17,578.18 L 861.18,580.37 L 861.19,581.42 L 861.22,583.25 L 861.24,584.11 L 861.28,585.50 L 861.30,586.13 L 861.36,587.02 L 861.45,587.73 L 861.54,587.95 L 862.45,588.31 L 863.02,588.48 L 864.71,588.73 L 865.63,588.84 L 867.85,588.97 L 869.00,589.02 L 871.52,589.04 L 874.06,589.03 L 879.00,588.67 L 880.15,588.55 L 882.10,588.23 L 883.00,588.06 M 904.62,587.25 L 904.66,586.91 L 904.79,586.22 L 905.00,585.50 L 905.50,584.00 L 906.00,582.50 L 906.16,582.17 L 906.50,580.97 L 906.88,578.96 L 906.89,578.80 L 907.58,578.54 L 908.03,578.43 L 909.52,578.27 L 910.36,578.21 L 912.60,578.16 L 916.74,578.21 L 926.48,578.50 L 928.37,583.75 L 928.59,584.39 L 928.98,585.44 L 929.17,585.93 L 929.51,586.72 L 929.84,587.46 L 930.52,588.29 L 930.89,588.63 L 931.89,588.90 L 934.13,589.00 L 935.19,589.00 L 936.86,588.77 L 937.21,588.70 L 937.69,588.52 L 938.00,588.21 L 938.00,588.15 L 937.83,587.59 L 937.72,587.24 L 937.35,586.13 L 937.13,585.51 L 936.58,583.92 L 936.28,583.07 L 935.56,581.05 L 935.19,580.00 L 934.33,577.63 L 933.89,576.40 L 932.93,573.74 L 929.71,564.96 L 921.41,542.50 L 917.11,542.50 L 912.80,542.50 L 909.51,551.25 L 909.06,552.45 L 908.26,554.65 L 907.88,555.69 L 907.29,557.43 L 907.02,558.22 L 906.69,559.31 L 906.56,560.00 L 906.61,560.00 L 906.53,560.42 L 906.47,560.69 L 906.18,561.62 L 906.01,562.14 L 905.54,563.52 L 905.28,564.26 L 904.63,566.05 L 904.28,566.99 L 903.48,569.12 L 903.06,570.23 L 902.13,572.66 L 898.92,580.83 L 898.52,581.83 L 897.79,583.71 L 897.44,584.61 L 896.86,586.14 L 896.59,586.85 L 896.23,587.87 L 896.00,588.63 L 896.00,588.77 L 896.37,588.95 L 896.60,589.02 L 897.33,589.06 L 898.13,589.07 L 900.27,588.80 L 901.34,588.63 L 903.23,588.11 L 903.64,587.98 L 904.22,587.69 L 904.47,587.54 M 969.00,585.50 L 969.00,582.00 L 960.52,582.00 L 952.04,582.00 L 951.77,562.25 L 951.50,542.50 L 947.75,542.19 L 944.00,541.88 L 944.00,565.44 L 944.00,589.00 L 956.50,589.00 L 969.00,589.00 L 969.00,585.50 M 982.54,583.50 L 984.41,578.00 L 994.37,578.00 L 995.74,578.00 L 998.19,578.05 L 999.35,578.09 L 1001.21,578.19 L 1002.06,578.25 L 1003.14,578.40 L 1003.36,578.44 L 1003.60,578.53 L 1003.68,578.66 L 1003.49,578.84 L 1003.54,579.52 L 1004.13,580.66 L 1004.44,581.03 L 1004.72,581.61 L 1004.59,582.00 L 1004.41,582.00 L 1004.49,582.66 L 1005.18,584.25 L 1005.52,584.87 L 1006.07,586.13 L 1006.46,587.50 L 1006.47,587.63 L 1006.84,587.89 L 1007.08,588.01 L 1007.81,588.24 L 1008.62,588.47 L 1010.75,588.79 L 1011.81,588.92 L 1013.67,588.95 L 1014.07,588.93 L 1014.63,588.82 L 1015.00,588.53 L 1015.00,588.45 L 1014.80,587.83 L 1014.68,587.46 L 1014.27,586.37 L 1014.04,585.78 L 1013.47,584.36 L 1012.50,582.01 L 1012.11,581.06 L 1011.23,578.89 L 1010.78,577.77 L 1009.84,575.38 L 1008.91,572.96 L 1007.13,568.17 L 1006.71,567.03 L 1005.98,564.97 L 1005.64,563.99 L 1005.09,562.37 L 1004.85,561.64 L 1004.55,560.64 L 1004.46,560.00 L 1004.50,560.00 L 1004.32,559.31 L 1004.20,558.87 L 1003.72,557.43 L 1003.45,556.64 L 1002.74,554.65 L 1001.49,551.25 L 998.20,542.50 L 993.91,542.50 L 989.63,542.50 L 980.95,565.75 L 972.26,589.00 L 976.47,589.00 L 977.52,589.00 L 978.93,588.91 L 979.55,588.83 L 980.38,588.31 L 980.76,587.97 L 981.40,586.68 L 981.56,586.29 L 981.92,585.32 L 982.11,584.79 M 1028.23,570.95 L 1028.50,552.90 L 1040.08,570.70 L 1040.78,571.78 L 1042.07,573.75 L 1042.69,574.71 L 1043.82,576.44 L 1044.92,578.11 L 1046.71,580.80 L 1047.55,582.04 L 1048.91,583.96 L 1049.55,584.84 L 1050.59,586.14 L 1051.08,586.72 L 1051.90,587.52 L 1052.30,587.86 L 1053.02,588.29 L 1055.33,588.81 L 1059.00,589.12 L 1059.00,565.50 L 1059.00,541.87 L 1055.94,542.19 L 1052.87,542.50 L 1052.89,559.75 L 1052.89,562.12 L 1052.88,566.45 L 1052.86,568.51 L 1052.82,571.93 L 1052.81,572.71 L 1052.78,574.04 L 1052.76,574.67 L 1052.73,575.64 L 1052.71,576.08 L 1052.68,576.65 L 1052.62,577.00 L 1052.60,577.00 L 1052.33,576.64 L 1052.16,576.41 L 1051.61,575.62 L 1051.30,575.17 L 1050.51,573.99 L 1050.09,573.36 L 1049.08,571.84 L 1048.56,571.05 L 1047.37,569.24 L 1046.75,568.31 L 1045.42,566.26 L 1041.00,559.45 L 1029.67,541.90 L 1025.59,542.20 L 1021.50,542.50 L 1021.23,565.75 L 1020.96,589.00 L 1024.46,589.00 L 1027.95,589.00 L 1028.23,570.95 M 1124.00,565.44 L 1124.00,541.88 L 1120.25,542.19 L 1116.50,542.50 L 1116.23,564.48 L 1116.19,567.50 L 1116.16,573.11 L 1116.16,574.46 L 1116.16,576.96 L 1116.17,578.18 L 1116.18,580.37 L 1116.19,581.42 L 1116.22,583.25 L 1116.24,584.11 L 1116.28,585.50 L 1116.30,586.13 L 1116.36,587.02 L 1116.45,587.73 L 1116.52,587.90 L 1116.92,588.22 L 1117.15,588.37 L 1117.83,588.63 L 1120.47,589.00 L 1124.00,589.00 L 1124.00,565.44 M 1141.77,571.25 L 1141.81,568.88 L 1141.94,564.55 L 1142.01,562.49 L 1142.18,559.07 L 1142.23,558.29 L 1142.32,556.96 L 1142.37,556.34 L 1142.47,555.36 L 1142.52,554.92 L 1142.62,554.35 L 1142.77,554.00 L 1142.88,554.00 L 1143.45,554.63 L 1143.78,555.02 L 1144.72,556.28 L 1145.21,556.97 L 1146.37,558.65 L 1146.96,559.52 L 1148.19,561.39 L 1148.81,562.34 L 1149.98,564.20 L 1150.55,565.11 L 1151.52,566.74 L 1151.96,567.50 L 1152.59,568.69 L 1153.00,569.72 L 1153.00,569.86 L 1153.31,570.54 L 1153.51,570.94 L 1154.13,572.02 L 1154.82,573.18 L 1156.70,576.04 L 1157.66,577.46 L 1159.46,579.92 L 1159.87,580.46 L 1160.52,581.24 L 1161.17,581.83 L 1161.40,581.92 L 1161.76,582.34 L 1162.00,583.08 L 1162.00,583.20 L 1162.17,583.63 L 1162.28,583.86 L 1162.64,584.45 L 1164.18,586.49 L 1164.58,586.96 L 1165.40,587.67 L 1165.82,587.99 L 1166.72,588.44 L 1167.20,588.64 L 1168.28,588.87 L 1170.18,589.00 L 1174.00,589.00 L 1174.00,565.44 L 1174.00,541.88 L 1170.25,542.19 L 1166.50,542.50 L 1166.00,559.76 L 1165.50,577.02 L 1155.57,561.26 L 1154.79,560.02 L 1153.39,557.79 L 1152.71,556.71 L 1151.48,554.77 L 1150.88,553.83 L 1149.81,552.16 L 1149.30,551.35 L 1148.37,549.93 L 1147.48,548.56 L 1146.06,546.50 L 1145.39,545.56 L 1144.31,544.23 L 1143.80,543.64 L 1142.93,542.89 L 1142.50,542.57 L 1141.69,542.24 L 1141.29,542.10 L 1140.40,542.02 L 1138.85,542.00 L 1135.00,542.00 L 1135.00,565.56 L 1135.00,589.13 L 1138.25,588.81 L 1141.50,588.50 L 1141.77,571.25 M 1300.00,580.86 L 1300.00,572.72 L 1307.75,558.11 L 1308.82,556.10 L 1310.79,552.37 L 1311.73,550.58 L 1313.33,547.55 L 1313.70,546.85 L 1314.33,545.64 L 1314.63,545.07 L 1315.11,544.15 L 1315.32,543.73 L 1315.63,543.15 L 1315.86,542.68 L 1315.90,542.57 L 1315.69,542.39 L 1315.54,542.31 L 1314.97,542.20 L 1312.36,542.18 L 1311.40,542.26 L 1310.05,542.55 L 1309.42,542.76 L 1308.30,543.81 L 1308.01,544.15 L 1307.37,545.09 L 1307.04,545.61 L 1306.26,546.96 L 1305.86,547.69 L 1304.88,549.54 L 1303.11,552.95 L 1297.72,563.41 L 1292.35,552.70 L 1286.98,542.00 L 1282.91,542.00 L 1281.79,542.00 L 1280.13,542.22 L 1279.79,542.29 L 1279.36,542.46 L 1279.17,542.75 L 1279.19,542.80 L 1279.39,543.20 L 1279.51,543.45 L 1279.87,544.22 L 1280.08,544.64 L 1280.60,545.72 L 1280.88,546.30 L 1281.54,547.66 L 1282.23,549.08 L 1283.91,552.56 L 1286.75,558.40 L 1287.64,560.23 L 1289.11,563.26 L 1289.79,564.69 L 1290.89,567.04 L 1291.39,568.15 L 1292.17,570.00 L 1292.53,570.87 L 1293.04,572.37 L 1293.51,573.82 L 1293.87,576.40 L 1293.93,577.08 L 1293.98,578.56 L 1294.00,581.15 L 1294.00,589.00 L 1297.00,589.00 L 1300.00,589.00 L 1300.00,580.86 M 1375.00,569.00 L 1375.00,549.00 L 1381.56,549.00 L 1388.13,549.00 L 1387.81,545.75 L 1387.50,542.50 L 1371.00,542.50 L 1354.50,542.50 L 1354.19,545.75 L 1353.87,549.00 L 1360.94,549.00 L 1368.00,549.00 L 1368.00,569.00 L 1368.00,589.00 L 1371.50,589.00 L 1375.00,589.00 L 1375.00,569.00 M 1420.00,585.54 L 1420.00,582.08 L 1411.25,581.79 L 1402.50,581.50 L 1402.20,574.75 L 1401.91,568.00 L 1409.95,568.00 L 1418.00,568.00 L 1418.00,565.00 L 1418.00,562.00 L 1409.95,562.00 L 1401.90,562.00 L 1402.20,555.75 L 1402.50,549.50 L 1410.75,549.21 L 1419.00,548.92 L 1419.00,545.46 L 1419.00,542.00 L 1407.00,542.00 L 1395.00,542.00 L 1395.00,565.50 L 1395.00,589.00 L 1407.50,589.00 L 1420.00,589.00 L 1420.00,585.54 M 1435.00,570.50 L 1435.50,552.50 L 1440.97,566.00 L 1441.72,567.86 L 1443.11,571.32 L 1443.77,572.99 L 1444.88,575.83 L 1445.13,576.49 L 1445.57,577.63 L 1445.78,578.17 L 1446.10,579.05 L 1446.25,579.45 L 1446.45,580.02 L 1446.60,580.50 L 1446.62,580.64 L 1446.78,581.18 L 1446.88,581.49 L 1447.17,582.31 L 1448.33,585.25 L 1448.63,585.97 L 1449.20,587.05 L 1449.49,587.54 L 1450.08,588.21 L 1450.39,588.49 L 1451.09,588.82 L 1452.34,589.00 L 1452.90,589.00 L 1453.87,588.49 L 1454.12,588.29 L 1454.65,587.62 L 1454.93,587.24 L 1455.56,586.13 L 1455.89,585.51 L 1456.68,583.86 L 1457.09,582.95 L 1458.09,580.64 L 1458.62,579.39 L 1459.88,576.32 L 1462.14,570.75 L 1469.50,552.50 L 1469.77,570.75 L 1470.05,589.00 L 1473.54,589.00 L 1477.04,589.00 L 1476.77,565.75 L 1476.50,542.50 L 1471.57,542.50 L 1466.63,542.50 L 1459.47,560.27 L 1452.30,578.04 L 1448.93,569.32 L 1448.47,568.12 L 1447.61,565.85 L 1447.20,564.75 L 1446.50,562.85 L 1446.18,561.97 L 1445.72,560.64 L 1445.39,559.55 L 1445.35,559.31 L 1445.06,558.36 L 1444.88,557.82 L 1444.36,556.39 L 1443.80,554.88 L 1442.32,551.18 L 1441.94,550.26 L 1441.19,548.48 L 1440.82,547.61 L 1440.14,546.08 L 1439.82,545.35 L 1439.28,544.24 L 1438.72,543.25 L 1438.59,543.08 L 1437.96,542.76 L 1437.60,542.61 L 1436.62,542.36 L 1432.88,542.00 L 1428.00,542.00 L 1428.00,565.56 L 1428.00,589.13 L 1431.25,588.81 L 1434.50,588.50 L 1435.00,570.50 M 1225.50,513.47 L 1222.56,513.09 L 1216.97,512.24 L 1214.21,511.80 L 1208.94,510.80 L 1206.33,510.28 L 1201.32,509.11 L 1198.84,508.50 L 1194.03,507.16 L 1189.27,505.76 L 1180.11,502.35 L 1166.50,496.18 L 1164.49,495.16 L 1159.93,492.64 L 1157.64,491.34 L 1153.22,488.70 L 1152.17,488.05 L 1150.26,486.84 L 1149.34,486.25 L 1147.78,485.20 L 1147.06,484.71 L 1145.97,483.89 L 1145.00,483.02 L 1144.86,482.84 L 1144.03,482.15 L 1142.39,480.94 L 1141.79,480.53 L 1140.27,479.34 L 1139.46,478.70 L 1137.63,477.12 L 1136.68,476.29 L 1134.63,474.43 L 1133.59,473.47 L 1131.45,471.43 L 1129.29,469.37 L 1125.16,465.14 L 1124.17,464.11 L 1122.38,462.16 L 1120.07,459.50 L 1116.80,455.54 L 1110.91,447.38 L 1108.07,443.25 L 1103.05,434.71 L 1100.64,430.38 L 1096.46,421.40 L 1094.47,416.85 L 1091.12,407.38 L 1089.54,402.57 L 1086.99,392.56 L 1085.82,387.48 L 1084.06,376.86 L 1083.28,371.47 L 1082.30,360.20 L 1081.67,342.50 L 1081.66,339.21 L 1081.73,333.17 L 1081.78,330.23 L 1082.00,324.77 L 1082.13,322.09 L 1082.51,317.01 L 1082.73,314.51 L 1083.31,309.64 L 1083.62,307.21 L 1084.42,302.37 L 1084.85,299.93 L 1085.88,294.94 L 1086.43,292.40 L 1087.73,287.07 L 1090.00,278.50 L 1090.56,276.48 L 1091.92,272.26 L 1092.64,270.13 L 1094.30,265.74 L 1096.02,261.32 L 1100.18,252.28 L 1102.36,247.77 L 1107.22,239.00 L 1108.47,236.86 L 1111.05,232.72 L 1115.00,226.81 L 1115.75,225.75 L 1117.62,223.32 L 1118.61,222.06 L 1120.88,219.31 L 1122.06,217.91 L 1124.65,214.96 L 1125.97,213.47 L 1128.77,210.43 L 1131.59,207.38 L 1137.43,201.46 L 1138.87,200.04 L 1141.68,197.36 L 1145.66,193.73 L 1146.49,193.01 L 1148.66,191.30 L 1149.81,190.42 L 1152.52,188.47 L 1153.92,187.47 L 1157.01,185.38 L 1158.58,184.33 L 1161.88,182.20 L 1165.21,180.07 L 1171.85,176.14 L 1173.45,175.21 L 1176.46,173.57 L 1180.50,171.51 L 1183.88,169.90 L 1190.66,167.02 L 1194.07,165.63 L 1200.95,163.18 L 1204.42,162.02 L 1211.47,160.00 L 1215.02,159.04 L 1222.29,157.43 L 1225.96,156.68 L 1233.51,155.47 L 1237.33,154.92 L 1245.23,154.09 L 1249.22,153.73 L 1257.53,153.29 L 1270.50,153.03 L 1274.70,153.03 L 1283.11,153.28 L 1287.31,153.45 L 1295.67,154.03 L 1299.84,154.36 L 1308.09,155.25 L 1320.27,156.95 L 1321.50,157.15 L 1324.38,157.71 L 1325.87,158.01 L 1329.12,158.73 L 1332.42,159.47 L 1339.21,161.21 L 1340.85,161.64 L 1343.91,162.50 L 1345.38,162.93 L 1347.94,163.72 L 1349.14,164.10 L 1351.00,164.77 L 1352.75,165.57 L 1355.00,167.05 L 1354.98,203.27 L 1354.98,205.76 L 1354.97,210.57 L 1354.96,212.94 L 1354.92,217.43 L 1354.90,219.62 L 1354.85,223.69 L 1354.82,225.66 L 1354.76,229.19 L 1354.72,230.89 L 1354.65,233.80 L 1354.61,235.16 L 1354.52,237.34 L 1354.48,238.33 L 1354.38,239.67 L 1354.23,240.64 L 1354.11,240.84 L 1353.28,240.85 L 1352.77,240.78 L 1351.13,240.26 L 1350.20,239.93 L 1347.70,238.85 L 1347.02,238.55 L 1345.49,237.84 L 1342.94,236.61 L 1340.41,235.37 L 1335.85,233.27 L 1333.63,232.28 L 1329.53,230.62 L 1327.52,229.84 L 1323.68,228.54 L 1318.00,226.90 L 1314.25,225.95 L 1306.80,224.41 L 1303.08,223.70 L 1295.70,222.65 L 1292.02,222.18 L 1284.76,221.62 L 1281.14,221.39 L 1274.04,221.32 L 1270.51,221.34 L 1263.59,221.75 L 1260.17,222.02 L 1253.48,222.91 L 1250.18,223.42 L 1243.77,224.81 L 1234.50,227.43 L 1232.22,228.19 L 1227.69,230.03 L 1225.42,231.00 L 1220.93,233.27 L 1218.70,234.45 L 1214.31,237.10 L 1212.13,238.47 L 1207.88,241.47 L 1205.78,243.02 L 1201.71,246.35 L 1199.70,248.05 L 1195.86,251.68 L 1193.97,253.52 L 1190.39,257.41 L 1185.37,263.50 L 1184.27,264.94 L 1182.16,268.10 L 1181.11,269.72 L 1179.13,273.21 L 1178.16,274.99 L 1176.32,278.76 L 1175.43,280.68 L 1173.76,284.69 L 1172.95,286.71 L 1171.47,290.92 L 1170.75,293.04 L 1169.48,297.39 L 1166.49,310.77 L 1166.18,312.64 L 1165.70,317.02 L 1165.49,319.30 L 1165.21,324.31 L 1165.10,326.87 L 1165.01,332.27 L 1164.99,334.99 L 1165.08,340.52 L 1165.15,343.28 L 1165.42,348.69 L 1165.58,351.35 L 1166.02,356.39 L 1166.26,358.84 L 1166.86,363.25 L 1167.94,368.90 L 1168.55,371.37 L 1169.92,376.11 L 1170.64,378.46 L 1172.24,382.95 L 1173.08,385.17 L 1174.92,389.43 L 1175.87,391.53 L 1177.96,395.57 L 1179.04,397.56 L 1181.38,401.38 L 1182.58,403.27 L 1185.18,406.89 L 1186.51,408.68 L 1189.37,412.11 L 1193.97,417.06 L 1196.20,419.30 L 1200.70,423.34 L 1202.95,425.29 L 1207.56,428.76 L 1209.88,430.43 L 1214.67,433.37 L 1217.09,434.78 L 1222.13,437.23 L 1224.69,438.40 L 1230.07,440.38 L 1232.80,441.32 L 1238.58,442.88 L 1241.52,443.61 L 1247.78,444.77 L 1257.77,446.10 L 1260.27,446.36 L 1265.65,446.61 L 1268.39,446.70 L 1274.14,446.62 L 1277.04,446.55 L 1282.98,446.17 L 1285.96,445.94 L 1291.93,445.27 L 1294.89,444.91 L 1300.71,443.98 L 1303.58,443.48 L 1309.07,442.31 L 1311.75,441.70 L 1316.75,440.30 L 1323.50,437.99 L 1323.77,437.88 L 1324.75,437.50 L 1325.29,437.29 L 1326.67,436.75 L 1331.50,434.89 L 1332.33,434.58 L 1334.47,433.67 L 1335.61,433.18 L 1338.14,432.03 L 1339.42,431.44 L 1342.02,430.19 L 1345.67,428.37 L 1346.50,427.94 L 1347.94,427.21 L 1348.63,426.87 L 1349.79,426.32 L 1350.33,426.06 L 1351.25,425.67 L 1351.67,425.49 L 1352.37,425.26 L 1353.02,425.06 L 1353.79,425.07 L 1354.42,425.65 L 1354.46,425.76 L 1354.54,426.65 L 1354.57,427.19 L 1354.65,428.90 L 1354.68,429.85 L 1354.74,432.28 L 1354.77,433.57 L 1354.83,436.63 L 1354.86,438.22 L 1354.90,441.81 L 1354.92,443.66 L 1354.95,447.68 L 1354.97,449.73 L 1354.99,454.08 L 1355.00,460.89 L 1355.00,464.07 L 1354.98,469.67 L 1354.97,472.35 L 1354.94,476.98 L 1354.92,479.19 L 1354.85,482.94 L 1354.82,484.71 L 1354.73,487.65 L 1354.68,489.02 L 1354.56,491.22 L 1354.50,492.24 L 1354.34,493.77 L 1354.26,494.46 L 1354.07,495.40 L 1353.75,496.22 L 1353.57,496.45 L 1352.92,496.97 L 1352.54,497.24 L 1351.54,497.83 L 1350.99,498.12 L 1349.67,498.76 L 1348.97,499.09 L 1347.36,499.77 L 1345.69,500.46 L 1341.63,501.93 L 1339.50,502.68 L 1334.76,504.18 L 1332.32,504.93 L 1327.16,506.39 L 1324.55,507.10 L 1319.24,508.42 L 1316.60,509.06 L 1311.43,510.16 L 1304.13,511.48 L 1301.10,511.95 L 1294.63,512.75 L 1291.35,513.12 L 1284.49,513.73 L 1277.58,514.30 L 1263.37,514.85 L 1259.84,514.94 L 1252.94,514.97 L 1249.52,514.96 L 1242.96,514.78 L 1239.75,514.67 L 1233.73,514.29 L 1230.80,514.07 M 422.00,334.00 L 422.00,159.00 L 461.50,159.00 L 500.99,159.00 L 501.25,301.75 L 501.50,444.50 L 566.00,445.00 L 570.43,445.03 L 578.95,445.12 L 583.14,445.16 L 591.02,445.25 L 594.87,445.30 L 601.95,445.41 L 605.38,445.46 L 611.48,445.57 L 612.94,445.60 L 615.63,445.66 L 616.94,445.69 L 619.34,445.75 L 620.49,445.77 L 622.55,445.83 L 623.54,445.86 L 625.26,445.92 L 626.07,445.95 L 627.41,446.01 L 628.03,446.03 L 628.98,446.09 L 629.41,446.12 L 629.94,446.17 L 630.25,446.25 L 630.23,446.30 L 630.20,447.03 L 630.18,447.50 L 630.15,448.99 L 630.14,449.82 L 630.11,451.98 L 630.10,453.14 L 630.07,455.89 L 630.06,457.32 L 630.04,460.57 L 630.03,462.25 L 630.02,465.90 L 630.01,467.78 L 630.01,471.76 L 630.00,478.00 L 630.00,509.00 L 526.00,509.00 L 422.00,509.00 L 422.00,334.00 M 678.00,334.00 L 678.00,159.00 L 779.00,159.00 L 880.00,159.00 L 880.00,190.99 L 880.00,222.98 L 818.75,223.24 L 757.50,223.50 L 757.50,261.50 L 757.50,299.50 L 814.25,299.76 L 871.00,300.02 L 871.00,332.00 L 871.00,363.98 L 814.25,364.24 L 757.50,364.50 L 757.50,404.50 L 757.50,444.50 L 822.75,444.76 L 888.00,445.01 L 888.00,477.01 L 888.00,509.00 L 783.00,509.00 L 678.00,509.00 L 678.00,334.00 M 944.67,508.33 L 944.65,508.32 L 944.62,508.07 L 944.60,507.90 L 944.57,507.37 L 944.55,507.07 L 944.53,506.26 L 944.51,505.83 L 944.48,504.76 L 944.45,503.62 L 944.40,500.60 L 944.38,498.97 L 944.33,495.01 L 944.30,492.92 L 944.26,488.09 L 944.24,485.58 L 944.20,479.97 L 944.18,477.07 L 944.15,470.74 L 944.14,467.49 L 944.11,460.52 L 944.09,456.96 L 944.07,449.41 L 944.06,445.57 L 944.04,437.53 L 944.03,433.45 L 944.02,424.99 L 944.01,420.71 L 944.00,411.89 L 943.99,403.00 L 943.99,384.47 L 943.99,375.13 L 944.00,356.15 L 944.01,346.66 L 944.04,327.81 L 944.06,318.46 L 944.10,300.33 L 944.11,295.87 L 944.14,287.19 L 944.16,282.89 L 944.19,274.59 L 944.20,270.49 L 944.24,262.64 L 944.26,258.78 L 944.30,251.46 L 944.32,247.87 L 944.36,241.15 L 944.38,237.87 L 944.43,231.82 L 944.45,228.89 L 944.50,223.58 L 944.53,221.03 L 944.58,216.55 L 944.61,214.42 L 944.66,210.83 L 944.69,209.16 L 944.75,206.54 L 944.77,205.95 L 944.80,204.96 L 944.81,204.50 L 944.84,203.77 L 944.86,203.45 L 944.89,203.00 L 944.94,202.65 L 945.88,200.17 L 955.19,203.22 L 956.24,203.57 L 958.09,204.14 L 958.99,204.42 L 960.66,204.87 L 962.30,205.30 L 965.59,205.85 L 966.46,205.97 L 968.37,206.17 L 969.37,206.26 L 971.65,206.40 L 972.85,206.47 L 975.62,206.58 L 980.50,206.75 L 982.24,206.80 L 985.25,206.87 L 986.69,206.90 L 989.18,206.92 L 990.37,206.93 L 992.45,206.89 L 993.46,206.87 L 995.26,206.77 L 997.02,206.65 L 1000.19,206.19 L 1005.39,205.10 L 1007.83,204.51 L 1012.92,203.04 L 1014.12,202.68 L 1016.19,201.98 L 1018.56,201.08 L 1019.74,200.55 L 1021.76,199.91 L 1022.20,199.79 L 1022.86,199.68 L 1023.42,199.76 L 1023.44,199.78 L 1023.48,200.62 L 1023.50,201.16 L 1023.54,203.02 L 1023.56,204.07 L 1023.59,206.90 L 1023.61,208.42 L 1023.65,212.16 L 1023.66,214.14 L 1023.70,218.73 L 1023.71,221.13 L 1023.75,226.53 L 1023.76,229.33 L 1023.79,235.48 L 1023.80,238.65 L 1023.83,245.50 L 1023.84,249.01 L 1023.87,256.51 L 1023.88,260.34 L 1023.90,268.43 L 1023.91,272.55 L 1023.93,281.19 L 1023.94,285.57 L 1023.95,294.70 L 1023.96,299.32 L 1023.97,308.88 L 1023.98,313.71 L 1023.99,323.65 L 1023.99,328.67 L 1024.00,338.94 L 1024.00,354.67 L 1024.00,509.00 L 984.67,509.00 L 981.96,509.00 L 976.75,508.99 L 974.19,508.98 L 969.34,508.95 L 966.97,508.93 L 962.60,508.89 L 960.48,508.86 L 956.69,508.80 L 954.88,508.77 L 951.78,508.71 L 950.33,508.67 L 948.03,508.59 L 946.99,508.55 L 945.60,508.47 L 945.03,508.42 M 1416.00,354.70 L 1416.00,347.86 L 1416.00,334.93 L 1416.01,328.58 L 1416.02,316.63 L 1416.02,310.78 L 1416.03,299.79 L 1416.04,294.41 L 1416.06,284.36 L 1416.07,279.45 L 1416.10,270.32 L 1416.11,265.87 L 1416.14,257.64 L 1416.16,253.64 L 1416.19,246.30 L 1416.21,242.73 L 1416.25,236.25 L 1416.28,233.12 L 1416.32,227.49 L 1416.35,224.77 L 1416.40,219.96 L 1416.43,217.66 L 1416.49,213.65 L 1416.52,211.75 L 1416.59,208.53 L 1416.62,207.02 L 1416.70,204.56 L 1416.74,203.43 L 1416.82,201.72 L 1416.86,200.96 L 1416.94,199.99 L 1417.08,199.32 L 1417.28,199.12 L 1417.87,198.92 L 1418.20,198.86 L 1419.11,198.92 L 1419.61,198.98 L 1420.90,199.32 L 1423.33,200.12 L 1425.78,201.02 L 1430.95,202.47 L 1433.57,203.13 L 1439.04,204.13 L 1441.79,204.56 L 1447.44,205.10 L 1450.28,205.31 L 1456.01,205.40 L 1458.87,205.38 L 1464.58,205.01 L 1467.43,204.77 L 1473.02,203.94 L 1475.79,203.48 L 1481.15,202.20 L 1488.84,199.78 L 1489.58,199.50 L 1490.98,199.07 L 1491.66,198.88 L 1492.84,198.62 L 1493.39,198.52 L 1494.23,198.47 L 1494.95,198.64 L 1494.96,198.66 L 1494.99,198.89 L 1495.00,199.04 L 1495.02,199.53 L 1495.05,200.09 L 1495.09,201.97 L 1495.11,203.04 L 1495.15,205.88 L 1495.17,207.42 L 1495.20,211.19 L 1495.22,213.18 L 1495.25,217.80 L 1495.26,220.21 L 1495.29,225.64 L 1495.30,228.45 L 1495.32,234.64 L 1495.33,237.82 L 1495.34,244.71 L 1495.35,248.23 L 1495.36,255.77 L 1495.36,259.61 L 1495.36,267.74 L 1495.36,271.87 L 1495.36,280.54 L 1495.36,284.94 L 1495.35,294.10 L 1495.35,298.73 L 1495.33,308.32 L 1495.33,313.17 L 1495.31,323.15 L 1495.30,328.18 L 1495.27,338.48 L 1495.22,354.25 L 1494.74,509.00 L 1455.37,509.00 L 1416.00,509.00 L 1416.00,354.70 M 976.00,186.37 L 974.03,186.20 L 969.99,185.55 L 967.96,185.17 L 963.85,184.11 L 961.79,183.54 L 957.68,182.11 L 955.63,181.35 L 951.56,179.58 L 949.54,178.65 L 945.58,176.56 L 943.63,175.48 L 939.84,173.10 L 937.97,171.88 L 934.41,169.23 L 929.38,165.00 L 927.27,163.07 L 923.60,159.27 L 921.83,157.36 L 918.68,153.42 L 917.16,151.40 L 914.34,147.04 L 910.26,139.75 L 908.85,137.00 L 489.93,137.00 L 71.00,137.00 L 71.00,103.00 L 71.00,69.00 L 489.97,69.00 L 908.95,69.00 L 910.62,65.75 L 911.38,64.28 L 913.11,61.32 L 914.02,59.83 L 916.02,56.87 L 918.08,53.91 L 922.79,48.22 L 925.22,45.45 L 930.41,40.43 L 931.72,39.23 L 934.36,37.04 L 938.33,34.10 L 939.23,33.48 L 941.29,32.21 L 942.36,31.58 L 944.68,30.31 L 947.04,29.05 L 952.19,26.67 L 954.78,25.53 L 959.86,23.62 L 961.10,23.19 L 963.45,22.46 L 966.70,21.61 L 967.88,21.34 L 970.65,20.91 L 972.09,20.71 L 975.25,20.42 L 978.48,20.15 L 985.50,20.02 L 989.01,20.02 L 995.73,20.42 L 997.33,20.55 L 1000.28,20.91 L 1004.18,21.61 L 1006.45,22.13 L 1010.98,23.49 L 1013.24,24.22 L 1017.68,25.97 L 1019.89,26.90 L 1024.18,29.01 L 1026.30,30.11 L 1030.39,32.55 L 1032.40,33.80 L 1036.22,36.52 L 1038.09,37.91 L 1041.58,40.88 L 1043.27,42.39 L 1046.37,45.56 L 1050.51,50.51 L 1051.33,51.60 L 1052.80,53.47 L 1053.13,53.88 L 1053.64,54.49 L 1054.13,55.00 L 1054.22,55.07 L 1054.54,55.48 L 1054.72,55.72 L 1055.17,56.41 L 1056.79,59.11 L 1057.35,60.11 L 1058.61,62.37 L 1058.92,62.91 L 1059.47,63.90 L 1060.16,65.11 L 1060.53,65.77 L 1061.40,67.01 L 1062.50,68.23 L 1062.52,68.25 L 1062.79,68.28 L 1062.96,68.29 L 1063.52,68.32 L 1063.84,68.34 L 1064.68,68.36 L 1065.14,68.38 L 1066.26,68.40 L 1067.45,68.43 L 1070.61,68.48 L 1072.31,68.50 L 1076.44,68.55 L 1078.62,68.57 L 1083.65,68.61 L 1086.27,68.64 L 1092.13,68.67 L 1095.15,68.69 L 1101.75,68.73 L 1105.13,68.74 L 1112.40,68.77 L 1116.11,68.79 L 1123.97,68.82 L 1127.96,68.83 L 1136.34,68.85 L 1140.58,68.87 L 1149.40,68.88 L 1153.85,68.89 L 1163.03,68.91 L 1172.28,68.93 L 1191.56,68.94 L 1201.27,68.95 L 1221.00,68.96 L 1230.87,68.96 L 1250.45,68.94 L 1260.16,68.94 L 1278.98,68.91 L 1283.60,68.90 L 1292.61,68.88 L 1297.07,68.88 L 1305.67,68.85 L 1309.92,68.84 L 1318.05,68.82 L 1322.04,68.80 L 1329.62,68.77 L 1333.33,68.76 L 1340.27,68.73 L 1343.66,68.71 L 1349.89,68.67 L 1352.92,68.65 L 1358.37,68.61 L 1360.99,68.59 L 1365.59,68.55 L 1367.77,68.53 L 1371.43,68.48 L 1373.13,68.46 L 1375.78,68.40 L 1376.38,68.39 L 1377.36,68.36 L 1377.82,68.35 L 1378.53,68.32 L 1378.84,68.31 L 1379.26,68.28 L 1379.55,68.23 L 1379.70,68.13 L 1380.15,67.59 L 1380.39,67.28 L 1380.98,66.39 L 1382.92,63.00 L 1384.34,60.22 L 1387.62,54.97 L 1389.32,52.40 L 1393.11,47.59 L 1395.07,45.24 L 1399.35,40.90 L 1401.54,38.79 L 1406.26,34.95 L 1408.67,33.09 L 1413.79,29.78 L 1416.40,28.20 L 1421.88,25.45 L 1424.67,24.15 L 1430.47,22.00 L 1439.50,19.47 L 1440.68,19.21 L 1443.55,18.80 L 1445.06,18.62 L 1448.44,18.37 L 1450.18,18.27 L 1453.88,18.17 L 1455.75,18.14 L 1459.59,18.20 L 1461.51,18.24 L 1465.29,18.44 L 1467.15,18.56 L 1470.69,18.89 L 1472.41,19.08 L 1475.52,19.55 L 1479.50,20.41 L 1482.96,21.36 L 1489.59,23.90 L 1492.84,25.27 L 1499.02,28.60 L 1502.05,30.36 L 1507.72,34.43 L 1510.50,36.56 L 1515.63,41.32 L 1518.12,43.79 L 1522.65,49.20 L 1524.84,51.98 L 1528.73,57.99 L 1530.59,61.06 L 1533.78,67.61 L 1537.73,78.00 L 1538.03,78.95 L 1538.53,80.64 L 1538.77,81.46 L 1539.16,82.98 L 1539.52,84.48 L 1539.96,87.48 L 1540.05,88.28 L 1540.17,90.02 L 1540.23,90.93 L 1540.30,93.00 L 1540.33,94.08 L 1540.35,96.59 L 1540.36,101.00 L 1540.35,102.97 L 1540.30,106.42 L 1540.26,108.08 L 1540.12,111.01 L 1540.03,112.43 L 1539.77,115.01 L 1539.62,116.27 L 1539.22,118.65 L 1538.77,121.00 L 1537.31,125.77 L 1536.89,127.02 L 1535.87,129.73 L 1534.04,134.25 L 1533.12,136.45 L 1530.91,140.78 L 1529.75,142.92 L 1527.08,147.11 L 1525.69,149.18 L 1522.61,153.18 L 1521.03,155.14 L 1517.59,158.90 L 1515.83,160.74 L 1512.08,164.19 L 1510.17,165.88 L 1506.16,168.98 L 1504.12,170.49 L 1499.90,173.19 L 1493.39,176.74 L 1491.71,177.56 L 1488.37,179.03 L 1487.60,179.36 L 1486.30,179.89 L 1484.89,180.39 L 1483.33,180.85 L 1480.68,181.60 L 1479.42,181.96 L 1477.23,182.53 L 1475.11,183.07 L 1471.47,183.69 L 1470.55,183.82 L 1468.63,184.00 L 1467.64,184.08 L 1465.45,184.18 L 1464.31,184.22 L 1461.66,184.26 L 1457.00,184.29 L 1454.94,184.29 L 1451.00,184.21 L 1449.08,184.16 L 1445.66,183.98 L 1444.05,183.89 L 1441.49,183.63 L 1440.92,183.56 L 1440.01,183.42 L 1439.00,183.18 L 1436.78,182.46 L 1432.97,181.19 L 1431.16,180.58 L 1428.05,179.48 L 1426.56,178.95 L 1423.98,177.93 L 1422.73,177.43 L 1420.50,176.43 L 1418.33,175.41 L 1414.31,173.05 L 1413.28,172.40 L 1411.08,170.93 L 1407.41,168.38 L 1405.41,166.96 L 1401.72,163.88 L 1399.91,162.29 L 1396.48,158.76 L 1394.79,156.92 L 1391.48,152.74 L 1386.46,145.56 L 1380.87,137.00 L 1221.45,137.00 L 1062.03,137.00 L 1060.59,140.45 L 1059.74,142.47 L 1057.35,146.66 L 1056.05,148.77 L 1052.87,153.02 L 1051.20,155.14 L 1047.40,159.31 L 1045.44,161.37 L 1041.17,165.31 L 1039.00,167.24 L 1034.43,170.81 L 1032.12,172.54 L 1027.41,175.60 L 1025.05,177.05 L 1020.35,179.46 L 1013.50,182.18 L 1010.64,183.08 L 1004.45,184.49 L 1001.30,185.13 L 994.82,186.00 L 991.57,186.36 L 985.16,186.64 L 981.99,186.71 M 614.09,583.10 L 613.43,582.92 L 611.81,581.87 L 609.71,579.82 L 609.09,578.99 L 608.45,577.04 L 608.23,576.04 L 608.35,573.92 L 608.50,572.86 L 609.34,570.82 L 611.38,568.11 L 613.74,565.90 L 619.95,572.37 L 620.81,573.26 L 622.37,574.95 L 623.11,575.76 L 624.36,577.18 L 624.92,577.85 L 625.71,578.84 L 626.22,579.67 L 626.24,579.93 L 625.90,580.45 L 625.67,580.71 L 624.92,581.22 L 624.50,581.46 L 623.44,581.93 L 622.89,582.15 L 621.63,582.54 L 620.34,582.90 L 617.60,583.28 L 616.94,583.34 L 615.70,583.33 L 615.11,583.30 M 614.04,557.55 L 613.71,557.15 L 613.10,555.74 L 612.54,553.42 L 612.46,552.73 L 612.67,551.45 L 612.82,550.84 L 613.41,549.77 L 613.74,549.27 L 614.61,548.45 L 615.08,548.07 L 616.14,547.53 L 616.68,547.31 L 617.83,547.10 L 618.40,547.04 L 619.54,547.20 L 620.10,547.33 L 621.13,547.91 L 622.44,549.27 L 622.94,550.03 L 623.38,551.60 L 623.51,552.37 L 623.23,553.88 L 623.01,554.61 L 622.06,555.92 L 619.92,557.54 L 619.04,558.00 L 617.73,558.57 L 617.13,558.79 L 616.22,558.91 L 615.80,558.91 L 615.10,558.57 L 614.75,558.34 M 450.00,575.62 L 450.00,568.00 L 455.37,568.00 L 457.10,568.00 L 459.93,568.46 L 460.58,568.62 L 461.72,569.04 L 462.26,569.26 L 463.17,569.83 L 463.60,570.13 L 464.29,570.83 L 464.60,571.20 L 465.05,572.05 L 465.24,572.49 L 465.45,573.47 L 465.49,575.09 L 465.39,576.29 L 464.68,578.24 L 464.23,579.14 L 462.80,580.53 L 461.99,581.16 L 459.78,582.03 L 455.56,582.79 L 450.00,583.25 L 450.00,575.62 M 450.20,555.25 L 450.50,548.50 L 455.21,548.56 L 456.61,548.58 L 458.94,549.04 L 460.03,549.33 L 461.70,550.32 L 462.45,550.88 L 463.41,552.35 L 464.00,555.08 L 464.00,556.08 L 463.27,557.84 L 462.80,558.68 L 461.25,560.03 L 460.38,560.65 L 458.18,561.48 L 454.32,562.00 L 449.91,562.00 L 450.20,555.25 M 491.00,570.21 L 491.00,570.16 L 491.07,569.85 L 491.11,569.67 L 491.26,569.12 L 491.43,568.52 L 491.98,566.73 L 492.28,565.76 L 493.04,563.40 L 494.33,559.48 L 497.67,549.54 L 501.26,560.27 L 504.85,571.00 L 497.93,571.00 L 496.97,571.00 L 495.24,570.94 L 494.41,570.90 L 493.03,570.77 L 492.41,570.70 L 491.55,570.52 L 491.19,570.42 M 710.01,569.25 L 710.01,569.01 L 710.24,567.87 L 710.39,567.21 L 710.86,565.41 L 711.12,564.45 L 711.77,562.22 L 712.89,558.64 L 715.75,549.78 L 719.30,560.39 L 722.85,571.00 L 716.43,571.00 L 715.06,571.00 L 713.12,570.94 L 712.26,570.89 L 711.17,570.68 L 710.71,570.56 L 710.24,570.15 L 710.07,569.92 M 751.00,575.50 L 751.00,568.00 L 756.05,568.00 L 757.05,568.00 L 758.64,568.11 L 759.38,568.19 L 760.57,568.49 L 761.13,568.68 L 762.11,569.25 L 763.55,570.45 L 764.26,571.17 L 765.20,572.64 L 765.60,573.37 L 765.93,574.83 L 766.02,575.56 L 765.78,576.94 L 765.59,577.62 L 764.82,578.88 L 764.38,579.48 L 763.14,580.54 L 762.46,581.04 L 760.79,581.85 L 759.90,582.21 L 757.83,582.70 L 754.35,583.00 L 751.00,583.00 L 751.00,575.50 M 751.00,555.13 L 751.00,548.00 L 753.93,548.00 L 754.82,548.00 L 756.73,548.29 L 757.69,548.47 L 759.51,549.04 L 760.39,549.36 L 761.82,550.11 L 763.21,551.31 L 763.54,551.83 L 763.87,553.36 L 763.99,554.17 L 763.93,555.94 L 763.85,556.82 L 763.44,558.40 L 762.47,560.03 L 762.26,560.20 L 761.48,560.56 L 761.04,560.74 L 759.93,561.07 L 755.97,561.78 L 751.00,562.25 L 751.00,555.13 M 869.00,575.50 L 869.00,568.00 L 873.43,568.00 L 874.49,568.00 L 876.39,568.15 L 877.30,568.25 L 878.91,568.60 L 879.68,568.79 L 880.99,569.33 L 881.60,569.62 L 882.61,570.35 L 883.08,570.74 L 883.78,571.65 L 884.09,572.13 L 884.48,573.22 L 884.64,573.79 L 884.71,575.05 L 884.47,577.15 L 884.27,578.05 L 883.22,579.58 L 882.60,580.30 L 880.79,581.42 L 879.80,581.93 L 877.34,582.59 L 873.03,583.00 L 869.00,583.00 L 869.00,575.50 M 869.00,555.13 L 869.00,548.00 L 872.43,548.00 L 873.43,548.00 L 875.49,548.28 L 876.50,548.45 L 878.41,549.01 L 879.31,549.32 L 880.78,550.07 L 882.21,551.31 L 882.57,551.87 L 882.90,553.27 L 883.01,554.00 L 882.89,555.55 L 882.78,556.32 L 882.24,557.76 L 881.01,559.49 L 880.73,559.75 L 879.84,560.24 L 879.35,560.48 L 878.15,560.91 L 874.01,561.77 L 869.00,562.25 L 869.00,555.13 M 910.00,570.21 L 910.00,570.16 L 910.07,569.85 L 910.11,569.67 L 910.26,569.12 L 910.43,568.52 L 910.98,566.73 L 911.28,565.76 L 912.04,563.40 L 913.33,559.48 L 916.67,549.54 L 920.26,560.27 L 923.85,571.00 L 916.93,571.00 L 915.97,571.00 L 914.24,570.94 L 913.41,570.90 L 912.03,570.77 L 911.41,570.70 L 910.55,570.52 L 910.19,570.42 M 987.26,569.75 L 987.32,569.58 L 987.66,568.58 L 987.86,567.99 L 988.42,566.31 L 988.72,565.41 L 989.42,563.28 L 990.55,559.81 L 990.94,558.61 L 991.71,556.47 L 992.08,555.45 L 992.76,553.80 L 993.08,553.05 L 993.60,552.08 L 994.11,551.57 L 994.21,551.63 L 994.61,552.39 L 994.83,552.87 L 995.43,554.31 L 995.74,555.10 L 996.45,557.03 L 997.57,560.26 L 997.94,561.39 L 998.66,563.56 L 999.01,564.61 L 999.63,566.45 L 999.92,567.31 L 1000.36,568.61 L 1000.75,569.75 L 1000.84,569.98 L 1000.59,570.34 L 1000.40,570.50 L 999.51,570.72 L 998.98,570.82 L 997.36,570.94 L 994.00,571.00 L 992.66,571.00 L 990.64,570.94 L 989.73,570.89 L 988.49,570.72 L 987.96,570.62 L 987.41,570.34 L 987.21,570.18 Z" fill="rgba(0,0,0,1)"/>
</g>
</svg>